<?xml version="1.0" encoding="UTF-8"?>
<svg version="1.1" xmlns="http://www.w3.org/2000/svg" width="512" height="512">
<path d="M0 0 C1.27083939 0.00081573 1.27083939 0.00081573 2.56735229 0.00164795 C56.75066119 0.16050043 109.88969722 20.02632227 149.703125 57.078125 C151.84092273 59.0545795 154.021484 60.94054656 156.25 62.8125 C196.51316694 98.10389936 218.89071398 154.64709494 222.74291992 206.984375 C226.0744098 257.82500425 212.27912121 311.16256619 181.27197266 352.01269531 C178.2814277 355.82634874 178.2814277 355.82634874 177.1875 360.375 C179.82232988 364.04553904 183.0819206 367.15573142 186.27954102 370.33862305 C187.84952302 371.91196844 189.37852081 373.51843797 190.90820312 375.13085938 C196.51891833 380.87106044 201.0507482 384.2549094 209.17102051 385.63476562 C220.12237361 388.32219249 228.860148 399.60855847 236.55078125 407.33984375 C237.91412949 408.70116671 239.27792243 410.06204444 240.64213562 411.42250061 C243.48515139 414.26111747 246.32273154 417.10502751 249.15649414 419.95288086 C252.77523123 423.58874083 256.40731748 427.21091932 260.04357624 430.82924557 C262.85697007 433.63176359 265.66313643 436.44143115 268.46721458 439.25326729 C269.80336029 440.5914028 271.14170642 441.92734513 272.48235512 443.26096916 C274.35800813 445.12894138 276.22367561 447.00637098 278.0871582 448.88647461 C278.63321716 449.42646088 279.17927612 449.96644714 279.74188232 450.52279663 C288.27967398 459.20107714 291.63115422 467.75463605 291.54663086 479.90649414 C291.2829169 490.16265019 287.76255096 496.73843972 280.703125 504.171875 C272.03952945 511.7592475 262.3157524 513.18936771 251.22070312 512.57519531 C242.90938829 511.75683818 236.99433814 507.54367564 231.09912109 501.93408203 C230.53656301 501.4064432 229.97400494 500.87880436 229.39439964 500.33517647 C223.42978678 494.71469078 217.59410644 488.96415326 211.7890625 483.1796875 C211.23602825 482.62948063 210.682994 482.07927376 210.11320114 481.51239395 C207.1976638 478.61164995 204.28485538 475.70820064 201.37451172 472.80224609 C198.39943981 469.83269266 195.4151616 466.87257059 192.42873573 463.91444206 C190.10031493 461.60475681 187.7787379 459.28828156 185.45890427 456.96997452 C184.36194792 455.87601028 183.26253312 454.78450463 182.16044998 453.69570541 C165.29772482 437.0221723 165.29772482 437.0221723 163.453125 426.4921875 C161.28049988 417.94760959 156.19339534 413.23325591 149.9375 407.5 C148.89351743 406.50633376 147.85183222 405.51024804 146.8125 404.51171875 C144.29660634 402.10444062 141.75155641 399.73103885 139.1875 397.375 C135.06429276 399.66232664 131.27954006 401.96267995 127.5625 404.875 C97.85209194 426.67075018 60.72261655 439.712972 24.1875 443.375 C23.16398438 443.48585938 22.14046875 443.59671875 21.0859375 443.7109375 C-34.84417614 448.9499608 -93.5946046 432.30150361 -137.2109375 396.62109375 C-140.45585016 393.9226334 -143.64434451 391.16293539 -146.8125 388.375 C-147.73289062 387.56675781 -148.65328125 386.75851562 -149.6015625 385.92578125 C-158.1854305 378.28847271 -165.65822291 370.37668088 -172.8125 361.375 C-173.988125 359.94220703 -173.988125 359.94220703 -175.1875 358.48046875 C-205.85298654 320.19775399 -221.32276074 271.44952979 -221.125 222.75 C-221.12317719 221.81991119 -221.12135437 220.88982239 -221.11947632 219.93154907 C-221.07522085 206.53252235 -220.69553251 193.50757553 -217.8125 180.375 C-217.63557617 179.52325195 -217.45865234 178.67150391 -217.27636719 177.79394531 C-209.10152004 138.86811874 -191.70090371 103.69398733 -165.22485352 73.97827148 C-163.68833399 72.23404958 -162.19059997 70.45995719 -160.69140625 68.68359375 C-158.63387678 66.2780509 -156.56192902 64.09418689 -154.125 62.0625 C-151.85732849 60.14370103 -149.64298557 58.21403251 -147.48828125 56.16796875 C-119.55501763 29.68911702 -83.41235211 12.94015341 -46.125 4.625 C-45.23554688 4.42608154 -44.34609375 4.22716309 -43.4296875 4.0222168 C-28.96922712 0.96458498 -14.73435015 -0.03589013 0 0 Z M-135.8125 70.375 C-136.58207031 71.02210937 -137.35164063 71.66921875 -138.14453125 72.3359375 C-142.15377229 75.72424446 -145.66746098 79.30250986 -149.0546875 83.3125 C-150.19601053 84.65165235 -151.36689728 85.9663571 -152.5703125 87.25 C-179.87016436 116.49168233 -195.88460041 155.19272128 -201.8125 194.375 C-201.9148999 195.0237207 -202.0172998 195.67244141 -202.12280273 196.34082031 C-209.13394882 248.22204149 -194.16158814 302.70818672 -162.8125 344.375 C-129.04695236 388.60147462 -80.34275362 417.27765012 -25.1015625 424.8515625 C28.77404417 431.66067465 83.2219186 416.43359777 126.1875 383.375 C140.96396083 371.73550598 154.03634275 358.51719776 165.1875 343.375 C165.82042969 342.52550781 166.45335937 341.67601562 167.10546875 340.80078125 C199.77607068 295.57031405 210.95322251 240.02179695 202.1875 185.375 C193.2518009 135.92240798 165.27222915 89.786992 124.93457031 59.68212891 C123.26424451 58.43241897 121.61252836 57.16101959 119.9609375 55.88671875 C46.14042276 -0.01565507 -62.34856568 6.82067326 -135.8125 70.375 Z M160.90234375 375.5625 C159.98582031 376.490625 159.06929688 377.41875 158.125 378.375 C156.74634766 379.7671875 156.74634766 379.7671875 155.33984375 381.1875 C154.62957031 381.909375 153.91929687 382.63125 153.1875 383.375 C154.84613505 387.70004836 158.058541 390.46918825 161.3125 393.625 C161.87582031 394.17929687 162.43914062 394.73359375 163.01953125 395.3046875 C164.40436028 396.66604485 165.79533204 398.02114859 167.1875 399.375 C167.94417969 398.60800781 168.70085937 397.84101563 169.48046875 397.05078125 C172.27185779 394.29161604 175.14744871 391.84946036 178.1875 389.375 C176.52580526 385.06922496 173.35669694 382.28488145 170.125 379.125 C169.57005859 378.57070313 169.01511719 378.01640625 168.44335938 377.4453125 C164.87078345 373.00759037 164.87078345 373.00759037 160.90234375 375.5625 Z M182.75 408.4375 C180.33376071 412.98002987 179.83998419 416.24914176 180.1875 421.375 C185.03462981 432.60708789 195.68550527 441.03521624 204.23046875 449.5859375 C205.36915431 450.72784601 206.50776885 451.86982535 207.64631653 453.01187134 C210.0136739 455.38516521 212.38303613 457.75643613 214.75366211 460.12646484 C217.78136074 463.15406122 220.80207986 466.18852152 223.82114697 469.22472191 C226.16237473 471.57708684 228.50815234 473.92487389 230.85521889 476.2714119 C231.97112268 477.38848977 233.08541924 478.50717573 234.19801903 479.6275444 C235.75252166 481.19189824 237.31329747 482.74972633 238.87573242 484.30615234 C240.20068977 485.63324722 240.20068977 485.63324722 241.55241394 486.9871521 C247.12214132 492.03429725 251.66486045 494.67748376 259.1875 494.375 C265.24246005 492.73297694 268.74443574 489.45871905 272.1875 484.375 C273.84041153 479.4162654 273.85075907 475.25186675 271.54611206 470.54621887 C269.32842036 466.30221708 266.53325439 463.15998693 263.13720703 459.82299805 C262.54153931 459.22192734 261.94587158 458.62085663 261.33215332 458.00157166 C259.37961242 456.0366222 257.41306137 454.08642904 255.4453125 452.13671875 C254.07469031 450.76594142 252.70473616 449.39449583 251.3354187 448.02241516 C248.47193618 445.15755227 245.6016408 442.29975372 242.72607422 439.44702148 C239.04673467 435.79610523 235.38321092 432.1297894 231.72442818 428.45828533 C228.90072357 425.62761671 226.06968289 422.80437987 223.23629379 419.98340797 C221.88269004 418.63430881 220.53115571 417.28312991 219.18176651 415.92981529 C217.29395817 414.03908672 215.396697 412.1583793 213.49658203 410.2800293 C212.94469208 409.7236377 212.39280212 409.16724609 211.82418823 408.59399414 C207.46716414 404.31930362 203.54072102 401.64068624 197.3125 400.9375 C191.12071046 401.21031831 186.57723962 403.62891689 182.75 408.4375 Z " fill="#000000" transform="translate(220.8125,-0.375)"/>
<path d="M0 0 C0.85200989 0.00498505 1.70401978 0.00997009 2.58184814 0.0151062 C15.10875799 0.10085475 27.33448978 0.41345229 39.5625 3.375 C40.53251953 3.60606445 41.50253906 3.83712891 42.50195312 4.07519531 C56.51606712 7.50748756 69.65838465 11.93046396 82.5625 18.375 C83.26777832 18.71756836 83.97305664 19.06013672 84.69970703 19.41308594 C127.73584058 40.4077535 161.13265118 78.52636999 177.5625 123.375 C182.40661351 137.46254387 185.78712448 151.59282218 187.5625 166.375 C187.69269531 167.32503906 187.82289063 168.27507812 187.95703125 169.25390625 C192.3803027 206.94017898 183.35000233 245.22874074 165.5625 278.375 C164.65757812 280.11136719 164.65757812 280.11136719 163.734375 281.8828125 C155.57792166 296.92769912 144.60192299 310.26936213 132.5625 322.375 C131.81347412 323.13006836 131.81347412 323.13006836 131.04931641 323.90039062 C96.11538585 358.64476586 47.13991549 376.53923062 -1.7109375 376.41015625 C-55.59221744 375.43977456 -102.28911865 352.71203671 -139.484375 314.57421875 C-149.02892616 304.57591764 -156.44938911 293.25537477 -163.4375 281.375 C-163.79585937 280.76962402 -164.15421875 280.16424805 -164.5234375 279.54052734 C-174.1265971 263.10053184 -180.39169228 244.93004647 -184.4375 226.375 C-184.60121094 225.65747559 -184.76492187 224.93995117 -184.93359375 224.20068359 C-190.42123633 199.14914169 -189.3769199 170.18402519 -183.4375 145.375 C-183.22851074 144.48506348 -183.01952148 143.59512695 -182.80419922 142.67822266 C-176.65191974 117.29027683 -165.19569558 94.1193903 -149.4375 73.375 C-148.7775 72.48941406 -148.1175 71.60382813 -147.4375 70.69140625 C-132.55611688 51.59556893 -114.20098691 36.58821313 -93.4375 24.375 C-92.83212402 24.01664063 -92.22674805 23.65828125 -91.60302734 23.2890625 C-77.9398291 15.30792446 -63.06492641 9.68786607 -47.8125 5.5625 C-47.14702148 5.37985596 -46.48154297 5.19721191 -45.79589844 5.0090332 C-30.67120576 1.1747288 -15.55565496 -0.15445793 0 0 Z M-127.60058594 75.33105469 C-147.17757487 97.11448788 -159.73506118 124.03485452 -166.4375 152.375 C-166.70433594 153.48149902 -166.70433594 153.48149902 -166.9765625 154.61035156 C-176.27047675 195.16058459 -166.94927371 241.18272482 -145.4375 276.375 C-138.00650551 288.00577088 -129.58733851 298.23586485 -119.828125 307.98046875 C-118.44948422 309.36136221 -117.08485289 310.75723987 -115.76171875 312.19140625 C-87.84663914 341.9719327 -44.16090608 356.73442359 -4.25537109 358.30273438 C26.08910207 359.04787823 54.94498865 351.80804338 81.5625 337.375 C82.16255859 337.05950195 82.76261719 336.74400391 83.38085938 336.41894531 C122.21111531 315.9875402 150.17455847 278.52321774 163.3125 237.1875 C176.38486444 194.21308038 171.55029826 148.12966424 150.76171875 108.39453125 C144.75113073 97.2429142 137.97208014 86.87782555 129.5625 77.375 C129.13324219 76.88547852 128.70398438 76.39595703 128.26171875 75.89160156 C114.16791781 59.87868796 98.19821897 47.29355481 79.3671875 37.33447266 C77.77487397 36.48790986 76.19855521 35.61140857 74.625 34.73046875 C55.71696842 24.55128697 32.20450002 18.37897029 10.71484375 18.13671875 C9.98944901 18.12683426 9.26405426 18.11694977 8.51667786 18.10676575 C-44.9556335 17.52898919 -90.91675206 36.03627178 -127.60058594 75.33105469 Z " fill="#000000" transform="translate(221.4375,33.625)"/>
<path d="M0 0 C0.79703701 -0.00709439 1.59407401 -0.01418877 2.41526365 -0.02149814 C5.08336471 -0.0390865 7.75001059 -0.02096987 10.41809082 -0.00291443 C12.33188033 -0.00805294 14.2456651 -0.0153337 16.15943909 -0.02459717 C21.35577189 -0.043128 26.55159228 -0.03016185 31.74790382 -0.01050687 C37.1841556 0.00586697 42.62037459 -0.0029315 48.05664062 -0.00802612 C57.1861592 -0.01254849 66.31547299 0.0033317 75.44494629 0.03126526 C86.00203747 0.06331772 96.55875927 0.06330184 107.11587667 0.04605049 C117.2687096 0.03019043 127.42140702 0.03691564 137.57423401 0.0539875 C141.89632267 0.0608627 146.21830286 0.05982072 150.54039001 0.05244255 C155.62944615 0.04478524 160.71808158 0.05688791 165.80706596 0.08429146 C167.67552377 0.09118216 169.54402082 0.09126593 171.41247749 0.08407593 C173.96173487 0.07539603 176.50968952 0.09131164 179.05883789 0.11352539 C179.799598 0.10528462 180.54035811 0.09704386 181.3035655 0.08855337 C186.1345195 0.16633829 188.66253053 1.15348862 192.02941895 4.62818909 C192.89854748 7.69443138 192.66423945 10.51699671 192.02941895 13.62818909 C190.15321281 16.12979726 188.79050591 17.2476456 186.02941895 18.62818909 C183.52175625 18.73020418 181.04160779 18.77157644 178.53349304 18.76863098 C177.36015843 18.77308766 177.36015843 18.77308766 176.16312009 18.77763438 C173.52764067 18.78634394 170.89220656 18.78783153 168.25671387 18.7893219 C166.3729289 18.79394849 164.48914487 18.79897293 162.60536194 18.80436707 C157.47720938 18.81750864 152.34906993 18.82393947 147.22090316 18.82837772 C144.01907089 18.83130569 140.81724222 18.83540997 137.61541176 18.8398819 C127.60357498 18.85356161 117.5917464 18.86322588 107.57990092 18.86708379 C96.01172576 18.87156551 84.44366871 18.88911675 72.87552947 18.91808438 C63.94129988 18.939682 55.00710356 18.94978705 46.07284814 18.95112491 C40.73337127 18.95217434 35.39400534 18.95811139 30.05455589 18.97594452 C25.03212736 18.99239195 20.00989356 18.99459691 14.98744774 18.98580551 C13.14316284 18.98503334 11.29886761 18.98940144 9.45460892 18.99926376 C6.93827112 19.01193173 4.42262836 19.00613475 1.90629578 18.99568176 C0.80959534 19.00776637 0.80959534 19.00776637 -0.30926067 19.02009511 C-4.70452239 18.97734582 -7.48748815 18.34668284 -10.97058105 15.62818909 C-13.4708976 11.87771427 -13.5066166 10.06962643 -12.97058105 5.62818909 C-9.20408472 0.64011704 -5.96924559 -0.0953755 0 0 Z " fill="#000000" transform="translate(131.9705810546875,101.37181091308594)"/>
<path d="M0 0 C1.09915237 -0.00571014 2.19830475 -0.01142029 3.33076477 -0.01730347 C5.14022331 -0.01898026 5.14022331 -0.01898026 6.98623657 -0.02069092 C8.25636093 -0.02565582 9.52648529 -0.03062073 10.83509827 -0.03573608 C14.32068185 -0.04885141 17.80624617 -0.05530323 21.29185057 -0.05974674 C23.46970217 -0.06267859 25.64754853 -0.0667836 27.82539749 -0.07125092 C34.64002215 -0.08492296 41.45463479 -0.0945913 48.26927221 -0.09845281 C56.13477823 -0.10293436 64.00011055 -0.12048787 71.86556375 -0.1494534 C77.94633508 -0.17106915 84.02705754 -0.18115701 90.10786688 -0.18249393 C93.73931089 -0.18354195 97.37059154 -0.18944907 101.00199509 -0.20731354 C105.05283912 -0.22685409 109.10331939 -0.22250572 113.15420532 -0.21600342 C114.35646255 -0.2252182 115.55871979 -0.23443298 116.79740906 -0.243927 C117.90220108 -0.23835785 119.0069931 -0.2327887 120.14526367 -0.22705078 C121.1027973 -0.22851734 122.06033092 -0.2299839 123.04688072 -0.2314949 C127.16746279 0.34624703 129.79972592 2.24055234 132.69961548 5.14044189 C133.03555298 7.16387939 133.03555298 7.16387939 133.07461548 9.51544189 C133.10297485 10.28630127 133.13133423 11.05716064 133.16055298 11.85137939 C132.51889526 15.03791687 131.20192337 16.10741271 128.69961548 18.14044189 C126.07901764 18.64380646 126.07901764 18.64380646 123.04446411 18.64837646 C121.89200699 18.65965576 120.73954987 18.67093506 119.5521698 18.68255615 C118.29178391 18.67445923 117.03139801 18.6663623 115.7328186 18.65802002 C114.38897442 18.66344153 113.04513619 18.67056435 111.7013092 18.67926025 C108.05455131 18.69749364 104.40824613 18.69042637 100.76148033 18.67774391 C96.94498856 18.66761617 93.12853553 18.67700895 89.31204224 18.68328857 C82.90291383 18.69056567 76.4939698 18.68097577 70.08486938 18.66192627 C62.67523755 18.64015725 55.26604597 18.64720859 47.85642481 18.66923189 C41.49451253 18.68738424 35.13273278 18.68994507 28.77080297 18.67947721 C24.97116727 18.67324131 21.1717385 18.67240912 17.37211609 18.68562317 C13.79982459 18.69717884 10.22810063 18.68916204 6.65587044 18.66604614 C4.71960861 18.65823463 2.78329878 18.67011745 0.84706116 18.68255615 C-0.30539597 18.67127686 -1.45785309 18.65999756 -2.64523315 18.64837646 C-3.64663582 18.64686836 -4.64803848 18.64536026 -5.67978668 18.64380646 C-9.01844192 18.00251739 -10.20809713 16.7648077 -12.30038452 14.14044189 C-13.03386626 11.077077 -12.87408333 8.23046319 -12.30038452 5.14044189 C-8.94664656 0.51459643 -5.45643688 0.01696426 0 0 Z " fill="#000000" transform="translate(191.30038452148438,322.85955810546875)"/>
<path d="M0 0 C3.43250143 1.9401095 4.70166193 3.14227804 6 6.875 C6 12.48447972 3.19713695 15.97870091 -0.5534668 19.89404297 C-2.0110402 21.35114489 -3.47676278 22.8001266 -4.94921875 24.2421875 C-5.72183548 25.01055939 -6.49445221 25.77893127 -7.29048157 26.57058716 C-9.74917754 29.01254927 -12.21811996 31.44384715 -14.6875 33.875 C-16.36071392 35.53316033 -18.03324789 37.19200708 -19.70507812 38.8515625 C-23.79554164 42.90902693 -27.89445848 46.95779595 -32 51 C-27.83787194 55.9701384 -23.49969324 60.62433947 -18.88671875 65.17578125 C-18.23169876 65.82701462 -17.57667877 66.47824799 -16.90180969 67.1492157 C-14.83280619 69.20611227 -12.76056866 71.25970113 -10.6875 73.3125 C-7.93855473 76.03490678 -5.19290355 78.76057417 -2.44921875 81.48828125 C-1.81698898 82.11221268 -1.18475922 82.7361441 -0.53337097 83.37898254 C4.87799243 88.75958971 4.87799243 88.75958971 5.375 93.8125 C5.31879192 97.24119313 4.99773575 98.00329345 2.9375 101 C0 103 0 103 -3.3125 103.75 C-11.71033052 102.04196667 -18.39637773 92.75115613 -24.27734375 86.85546875 C-25.5552755 85.57897209 -25.5552755 85.57897209 -26.85902405 84.27668762 C-28.644305 82.49208294 -30.42834072 80.70623176 -32.21118164 78.91918945 C-34.95019661 76.17477838 -37.69455952 73.43579568 -40.43945312 70.69726562 C-42.17740442 68.95865423 -43.91504586 67.21973305 -45.65234375 65.48046875 C-46.47516342 64.65967331 -47.29798309 63.83887787 -48.14573669 62.99320984 C-48.90064896 62.23514542 -49.65556122 61.47708099 -50.43334961 60.69604492 C-51.09983017 60.02876877 -51.76631073 59.36149261 -52.45298767 58.67399597 C-54.61286 56.33683452 -54.98847127 55.07205458 -55.5 51.875 C-54.97540937 47.80942259 -54.64936837 47.19054427 -52.0402832 44.33764648 C-51.08310898 43.28914017 -51.08310898 43.28914017 -50.1065979 42.2194519 C-46.41355533 38.32856681 -42.65338339 34.5110876 -38.85546875 30.72265625 C-38.00447098 29.87070175 -37.15347321 29.01874725 -36.27668762 28.14097595 C-34.49208294 26.355695 -32.70623176 24.57165928 -30.91918945 22.78881836 C-28.17477838 20.04980339 -25.43579568 17.30544048 -22.69726562 14.56054688 C-20.95865423 12.82259558 -19.21973305 11.08495414 -17.48046875 9.34765625 C-16.65967331 8.52483658 -15.83887787 7.70201691 -14.99320984 6.85426331 C-14.23514542 6.09935104 -13.47708099 5.34443878 -12.69604492 4.56665039 C-12.02876877 3.90016983 -11.36149261 3.23368927 -10.67399597 2.54701233 C-7.31252833 -0.55946581 -4.47185065 -0.37897039 0 0 Z " fill="#000000" transform="translate(174,170)"/>
<path d="M0 0 C1.74450684 1.259552 1.74450684 1.259552 3.61523438 2.96142578 C4.67061401 3.9188266 4.67061401 3.9188266 5.74731445 4.89556885 C12.49770653 11.20170217 19.11122446 17.6422892 25.69335938 24.12353516 C27.56998826 25.96327137 29.45549966 27.79398896 31.34960938 29.61572266 C34.09863456 32.2615405 36.81722687 34.93553409 39.53125 37.6171875 C40.38110474 38.42372772 41.23095947 39.23026794 42.10656738 40.06124878 C48.51151342 46.48725167 48.51151342 46.48725167 48.74072266 51.80908203 C48.33519292 55.5960005 47.37863735 57.7282028 44.6171875 60.4375 C43.79444336 61.27023438 42.97169922 62.10296875 42.12402344 62.9609375 C41.63913452 63.43112305 41.15424561 63.90130859 40.65466309 64.38574219 C38.75010616 66.24379167 36.88715541 68.13909927 35.02441406 70.0390625 C31.21584884 73.9145604 27.3795111 77.76111311 23.53222656 81.59814453 C21.10624612 84.01871204 18.68572361 86.44464702 16.265625 88.87109375 C14.72167516 90.41438369 13.17741562 91.95736389 11.6328125 93.5 C10.55001511 94.58583374 10.55001511 94.58583374 9.44534302 95.69360352 C8.77389252 96.36190186 8.10244202 97.0302002 7.41064453 97.71875 C6.82268097 98.30591797 6.23471741 98.89308594 5.62893677 99.49804688 C2.19755654 102.66193411 -0.31725299 103.51772454 -4.9921875 103.37109375 C-7 103 -7 103 -10 101 C-12.06174933 97.907376 -12.67751028 95.93508685 -12.56713867 92.22558594 C-11.35455362 87.46711613 -7.36010947 84.40265092 -3.90625 81.125 C-3.08499634 80.31506592 -2.26374268 79.50513184 -1.41760254 78.6706543 C1.20339045 76.09435501 3.8508362 73.54729137 6.5 71 C8.28437025 69.25576432 10.06694526 67.50969006 11.84765625 65.76171875 C16.21118301 61.48627915 20.59675038 57.23449728 25 53 C23.64603754 49.97102391 22.13789363 47.89960549 19.77539062 45.58007812 C19.12131226 44.9326062 18.46723389 44.28513428 17.79333496 43.61804199 C17.08809692 42.92940063 16.38285889 42.24075928 15.65625 41.53125 C14.93135376 40.813927 14.20645752 40.096604 13.45959473 39.35754395 C11.14446702 37.06683716 8.82304819 34.78267243 6.5 32.5 C3.44218003 29.49532649 0.39098711 26.48415157 -2.65625 23.46875 C-3.36148804 22.78010864 -4.06672607 22.09146729 -4.79333496 21.38195801 C-5.44741333 20.73448608 -6.1014917 20.08701416 -6.77539062 19.41992188 C-7.35115845 18.85462769 -7.92692627 18.2893335 -8.5201416 17.70690918 C-10.91535583 14.94420353 -11.91231898 12.68683464 -12.375 9.0625 C-11.90977662 5.2631757 -10.63608379 3.71361566 -8 1 C-4.98221063 -0.50889469 -3.37677363 -0.50026276 0 0 Z " fill="#000000" transform="translate(276,170)"/>
<path d="M0 0 C0.89858734 -0.00708481 1.79717468 -0.01416962 2.72299194 -0.02146912 C3.70128464 -0.0189917 4.67957733 -0.01651428 5.68751526 -0.01396179 C6.72369995 -0.01907272 7.75988464 -0.02418365 8.82746887 -0.02944946 C12.25556704 -0.04335913 15.68346448 -0.04238767 19.11158752 -0.04008484 C21.49285965 -0.04397093 23.87413108 -0.04830541 26.25540161 -0.05307007 C31.2479324 -0.06053518 36.24039247 -0.0602388 41.23292542 -0.05497742 C47.63335688 -0.04918158 54.03349908 -0.06611539 60.43388271 -0.08932209 C65.35206802 -0.10404759 70.27018347 -0.10493274 75.18838692 -0.10181236 C77.54831071 -0.10232614 79.90823835 -0.10757442 82.26814079 -0.11762428 C85.56697818 -0.1299485 88.86524956 -0.12322079 92.16407776 -0.11161804 C93.14034622 -0.11926178 94.11661469 -0.12690552 95.12246704 -0.13478088 C100.05550087 -0.09639441 103.50561187 0.00363709 107.49049377 3.26069641 C109.59150972 5.93471671 109.48896353 7.30354326 109.36549377 10.76069641 C108.35274685 14.8116841 107.89560512 15.8914865 104.49049377 18.26069641 C100.9687341 18.86775003 97.47653097 18.80665899 93.91041565 18.77827454 C92.29520775 18.78878845 92.29520775 18.78878845 90.64736938 18.79951477 C87.0843993 18.81713433 83.52222208 18.80545728 79.95924377 18.79194641 C77.48589424 18.79464017 75.01254573 18.79852161 72.53919983 18.80354309 C67.35407942 18.80944354 62.16923452 18.80085718 56.98414612 18.78218079 C50.33232422 18.75939117 43.6814169 18.7725111 37.02957916 18.79647064 C31.92182029 18.81091356 26.81421487 18.80632944 21.70645142 18.79595947 C19.2536003 18.79328804 16.80073533 18.7965765 14.34790039 18.80587769 C10.92174793 18.81601799 7.49664597 18.80057597 4.0705719 18.77827454 C3.05330521 18.78637146 2.03603851 18.79446838 0.98794556 18.80281067 C-5.85151642 18.72018753 -5.85151642 18.72018753 -9.11216736 16.44319153 C-11.10542396 13.3299361 -11.44495072 10.94036042 -11.50950623 7.26069641 C-10.28424996 4.35877368 -9.37304508 2.78898685 -6.67806911 1.14027119 C-4.28146616 0.16820276 -2.57861834 0.00679644 0 0 Z " fill="#000000" transform="translate(104.50950622558594,288.7393035888672)"/>
<path d="M0 0 C4.12507614 0.66295867 5.75668103 1.41575177 8.5 4.5625 C10.76335011 11.69108559 7.72858162 17.28677811 5 23.9375 C4.48113345 25.23039189 3.96352524 26.52378932 3.44702148 27.81762695 C2.2270278 30.86551953 0.99604588 33.90876846 -0.23876953 36.95068359 C-2.18206121 41.7534419 -4.08600505 46.57114726 -5.98211861 51.39270401 C-8.01346008 56.55773519 -10.05607589 61.71821248 -12.10615349 66.87583542 C-13.40198874 70.13648715 -14.69357649 73.3986709 -15.97509766 76.66497803 C-17.43402055 80.38114977 -18.9171925 84.08720097 -20.40234375 87.79296875 C-20.84162704 88.92088333 -21.28091034 90.04879791 -21.73350525 91.21089172 C-22.36610008 92.77362068 -22.36610008 92.77362068 -23.01147461 94.36791992 C-23.37276962 95.278134 -23.73406464 96.18834808 -24.10630798 97.12614441 C-25.81461827 100.11249381 -27.64961703 101.66037252 -30.5 103.5625 C-34.8968344 104.2691341 -36.73727467 104.08180235 -40.4375 101.5625 C-43.01738586 97.80993874 -43.01153145 94.93936765 -42.5 90.5625 C-41.72637065 87.5803022 -40.623393 84.7799579 -39.45825195 81.9309082 C-39.13466202 81.10871796 -38.81107208 80.28652771 -38.47767639 79.43942261 C-37.41157834 76.74169829 -36.32569406 74.05247727 -35.23828125 71.36328125 C-34.48713942 69.48130398 -33.7368421 67.59898944 -32.98735046 65.71635437 C-31.41655432 61.77984562 -29.83597876 57.84744977 -28.24829102 53.91772461 C-26.2169995 48.88789868 -24.20982629 43.84885951 -22.20980549 38.80653095 C-20.6655868 34.92079267 -19.10897722 31.0401127 -17.54857445 27.16084862 C-16.80367672 25.30485093 -16.06254865 23.4473356 -15.32531166 21.58828163 C-14.29226552 18.98891975 -13.24277284 16.3968103 -12.1887207 13.8059082 C-11.73879761 12.65950615 -11.73879761 12.65950615 -11.27978516 11.48994446 C-8.95531078 5.85229801 -6.47784224 1.04108179 0 0 Z " fill="#000000" transform="translate(238.5,169.4375)"/>
<path d="M0 0 C0.90138702 -0.0071553 1.80277405 -0.01431061 2.73147583 -0.02168274 C5.70488476 -0.03856355 8.67678483 -0.01917224 11.65014648 0.00219727 C13.71850204 0.00136858 15.78685754 -0.00109077 17.85520935 -0.00511169 C22.18704076 -0.00796918 26.51835497 0.00672835 30.85009766 0.03417969 C36.4044224 0.0682834 41.9578236 0.06223656 47.51219273 0.04351711 C51.78187264 0.03295303 56.05133734 0.04187926 60.32099724 0.05690193 C62.36913349 0.0620871 64.41729218 0.0615979 66.46542549 0.05535698 C69.32640116 0.04991116 72.18605044 0.07025887 75.046875 0.09765625 C76.31794853 0.08786743 76.31794853 0.08786743 77.61470032 0.07788086 C83.35793964 0.17147796 83.35793964 0.17147796 86.45323181 2.53944397 C88.99907898 6.07648531 89.38766919 8.25602821 88.95874023 12.63110352 C87.15880249 15.33101013 85.87496724 17.17299002 82.95874023 18.63110352 C80.11717489 18.74009344 77.29974564 18.78843526 74.45751953 18.79223633 C73.13776627 18.79968369 73.13776627 18.79968369 71.79135132 18.80728149 C68.87187933 18.82192244 65.9524617 18.82870863 63.03295898 18.83422852 C61.00755308 18.83997875 58.9821472 18.84573649 56.95674133 18.85150146 C52.7055333 18.86201721 48.45434421 18.867856 44.203125 18.87133789 C38.75549141 18.87682127 33.30810795 18.90084361 27.86055279 18.92930984 C23.6749651 18.94793398 19.48943765 18.95314173 15.30381203 18.95467377 C13.29555711 18.95770175 11.28730329 18.96573517 9.27908897 18.97885895 C6.46858078 18.99591327 3.65868348 18.99404057 0.84814453 18.98754883 C0.01834579 18.99676361 -0.81145294 19.00597839 -1.66639709 19.01547241 C-6.27677325 18.98211285 -9.29485971 18.62298245 -13.04125977 15.63110352 C-14.6202403 12.47314245 -14.86054147 9.02439716 -14.04125977 5.63110352 C-9.84412915 0.09350538 -6.4803873 -0.08963063 0 0 Z " fill="#000000" transform="translate(210.041259765625,135.368896484375)"/>
<path d="M0 0 C0.72421646 -0.00700928 1.44843292 -0.01401855 2.19459534 -0.02124023 C4.57869275 -0.03878626 6.96159451 -0.02721062 9.34570312 -0.01367188 C11.00809964 -0.01636779 12.67049461 -0.02025104 14.33288574 -0.02526855 C17.81305997 -0.03115897 21.29282289 -0.02261569 24.77294922 -0.00390625 C29.2286325 0.01888341 33.683352 0.00575782 38.13899994 -0.01819611 C41.57060985 -0.03266666 45.00199215 -0.02804241 48.43360901 -0.01768494 C50.07621882 -0.01502111 51.71884945 -0.01827533 53.36143494 -0.02760315 C55.65948026 -0.03778998 57.95597603 -0.02224035 60.25390625 0 C62.21318054 0.00477356 62.21318054 0.00477356 64.21203613 0.00964355 C68.18811942 0.60104597 69.83906361 1.66912808 72.62695312 4.51757812 C73.93854081 8.28839271 73.81351221 10.00699537 72.43945312 13.76757812 C70.48864906 16.72741878 69.86288258 17.34310647 66.62695312 18.51757812 C63.40821838 18.77827454 63.40821838 18.77827454 59.55102539 18.79223633 C58.8464621 18.79734726 58.1418988 18.80245819 57.41598511 18.807724 C55.09168963 18.82160077 52.76769131 18.82066473 50.44335938 18.81835938 C48.82437531 18.82224734 47.20539225 18.82658222 45.58641052 18.8313446 C42.19453626 18.83880267 38.80276609 18.83851854 35.41088867 18.83325195 C31.06856529 18.82745758 26.72666849 18.8443893 22.38441563 18.86759663 C19.04120908 18.88234268 15.69810506 18.8832045 12.35487175 18.8800869 C10.75412081 18.88059966 9.15336407 18.88582906 7.55264473 18.89589882 C5.31224123 18.90826327 3.07266605 18.90147227 0.83227539 18.88989258 C-0.44139389 18.890522 -1.71506317 18.89115143 -3.02732849 18.89179993 C-6.62350638 18.48956399 -8.49181014 17.65746134 -11.37304688 15.51757812 C-13.45911613 12.86258089 -13.37184143 11.45007308 -13.31054688 8.01757812 C-11.41567159 0.94337704 -6.75884404 0.01646719 0 0 Z " fill="#000000" transform="translate(106.373046875,135.482421875)"/>
<path d="M0 0 C1.1177758 -0.01051392 1.1177758 -0.01051392 2.25813293 -0.02124023 C4.71739138 -0.03882229 7.17549581 -0.02719761 9.63476562 -0.01367188 C11.34582744 -0.01636675 13.05688776 -0.02024913 14.76794434 -0.02526855 C18.35244337 -0.03116386 21.93654346 -0.02259986 25.52099609 -0.00390625 C30.11468002 0.01888362 34.70742917 0.00576066 39.3010788 -0.01819611 C42.83387286 -0.03265339 46.36644546 -0.02804848 49.89924622 -0.01768494 C51.59292207 -0.01501744 53.28661805 -0.01828823 54.98027039 -0.02760315 C57.34806539 -0.037768 59.71434879 -0.02227067 62.08203125 0 C62.78137283 -0.00809692 63.48071442 -0.01619385 64.20124817 -0.02453613 C67.51582805 0.03319345 69.27257773 0.3149329 71.9486084 2.33508301 C74.19581264 5.41501897 74.47461215 7.73258016 74.54101562 11.51757812 C73.27868175 14.67341281 72.39502045 16.07886203 69.36169434 17.63713074 C65.96823413 18.69636629 63.09139002 18.77897048 59.53515625 18.79223633 C58.84995407 18.79734726 58.16475189 18.80245819 57.45878601 18.807724 C55.20485584 18.82156872 52.95123313 18.82066742 50.69726562 18.81835938 C49.12455126 18.82224859 47.55183794 18.82658373 45.97912598 18.8313446 C42.68738393 18.83879539 39.39574917 18.83852346 36.10400391 18.83325195 C31.89061978 18.82745302 27.67767464 18.84440379 23.4643631 18.86759663 C20.21809329 18.8823427 16.97192908 18.88320459 13.72563171 18.8800869 C12.17232899 18.88059948 10.61902026 18.88582544 9.06575012 18.89589882 C6.89250285 18.90826589 4.72010909 18.90147128 2.546875 18.88989258 C0.69419006 18.89083672 0.69419006 18.89083672 -1.19592285 18.89179993 C-5.72435333 18.37246022 -8.28093673 16.69562577 -11.45898438 13.51757812 C-11.79492188 11.49414062 -11.79492188 11.49414062 -11.83398438 9.14257812 C-11.86234375 8.37171875 -11.89070312 7.60085937 -11.91992188 6.80664062 C-10.63074988 0.40448141 -5.62237147 -0.06509539 0 0 Z " fill="#000000" transform="translate(190.458984375,67.482421875)"/>
<path d="M0 0 C1.1177758 -0.01051392 1.1177758 -0.01051392 2.25813293 -0.02124023 C4.71739138 -0.03882229 7.17549581 -0.02719761 9.63476562 -0.01367188 C11.34582744 -0.01636675 13.05688776 -0.02024913 14.76794434 -0.02526855 C18.35244337 -0.03116386 21.93654346 -0.02259986 25.52099609 -0.00390625 C30.11468002 0.01888362 34.70742917 0.00576066 39.3010788 -0.01819611 C42.83387286 -0.03265339 46.36644546 -0.02804848 49.89924622 -0.01768494 C51.59292207 -0.01501744 53.28661805 -0.01828823 54.98027039 -0.02760315 C57.34806539 -0.037768 59.71434879 -0.02227067 62.08203125 0 C62.78137283 -0.00809692 63.48071442 -0.01619385 64.20124817 -0.02453613 C67.51582805 0.03319345 69.27257773 0.3149329 71.9486084 2.33508301 C74.19581264 5.41501897 74.47461215 7.73258016 74.54101562 11.51757812 C73.19539163 14.46513544 72.45547018 16.06035085 69.54101562 17.51757812 C67.12131541 17.6311042 64.72970081 17.68536774 62.30908203 17.69458008 C61.19174431 17.70443687 61.19174431 17.70443687 60.05183411 17.7144928 C57.58208114 17.7342347 55.11238896 17.74588951 52.64257812 17.75585938 C51.79989758 17.7599349 50.95721703 17.76401043 50.0890007 17.76820946 C45.62997431 17.78907269 41.17097872 17.80337404 36.71191406 17.81274414 C32.10258428 17.82381718 27.49373613 17.85822633 22.8845768 17.89791584 C19.34326265 17.92403762 15.80206411 17.93243194 12.26066208 17.93602562 C10.56137204 17.94090207 8.86208752 17.95254612 7.16289139 17.97106361 C4.78544976 17.99536464 2.40926561 17.99450735 0.03173828 17.98754883 C-0.67074539 18.00035889 -1.37322906 18.01316895 -2.09700012 18.02636719 C-5.48320386 17.99022077 -7.18468234 17.73056795 -9.89395142 15.62687683 C-11.69150977 13.20418823 -11.99991506 12.00551798 -11.95898438 9.01757812 C-11.96929687 8.26476562 -11.97960937 7.51195312 -11.99023438 6.73632812 C-10.47928146 0.42587773 -5.65129901 -0.06543031 0 0 Z " fill="#000000" transform="translate(190.458984375,357.482421875)"/>
<path d="M0 0 C1.22263046 -0.00004028 2.44526093 -0.00008057 3.7049408 -0.00012207 C6.28454745 0.00522996 8.86415386 0.02279873 11.44360352 0.05175781 C15.39194541 0.0936397 19.33858261 0.09282204 23.28710938 0.0859375 C25.79558477 0.09642923 28.30405138 0.10936724 30.8125 0.125 C32.58295433 0.12530212 32.58295433 0.12530212 34.38917542 0.12561035 C36.04130287 0.14947815 36.04130287 0.14947815 37.72680664 0.17382812 C39.17525719 0.18645691 39.17525719 0.18645691 40.65296936 0.19934082 C43.86324738 0.67058098 45.73049106 1.68766077 48.33984375 3.59375 C50.67893682 7.1023896 50.75275432 8.46464433 50.33984375 12.59375 C48.07513787 17.22610294 48.07513787 17.22610294 45.33984375 18.59375 C43.48781628 18.71024308 41.6316656 18.7634217 39.77612305 18.78662109 C38.02872078 18.81071548 38.02872078 18.81071548 36.24601746 18.83529663 C30.91604061 18.87965456 25.58621198 18.92125092 20.25610352 18.94384766 C17.44197047 18.95718324 14.62856323 18.98502719 11.81469727 19.02587891 C7.76436107 19.08468018 3.71480326 19.10250754 -0.3359375 19.1171875 C-1.59440994 19.13985687 -2.85288239 19.16252625 -4.14949036 19.18588257 C-13.86093896 19.16231463 -13.86093896 19.16231463 -16.94921875 16.18994141 C-18.57227748 13.727098 -19.36525007 12.50259427 -19.34765625 9.59375 C-19.37214844 8.954375 -19.39664063 8.315 -19.421875 7.65625 C-16.2334328 -0.97707043 -7.67584727 -0.10680626 0 0 Z " fill="#000000" transform="translate(248.66015625,288.40625)"/>
<path d="M0 0 C1.27552734 -0.020625 2.55105469 -0.04125 3.86523438 -0.0625 C5.09435547 -0.06765625 6.32347656 -0.0728125 7.58984375 -0.078125 C8.71124756 -0.0874707 9.83265137 -0.09681641 10.98803711 -0.10644531 C15.39478845 0.40446209 17.96967276 2.15717276 21.0625 5.25 C22.02436608 8.21575376 22.17464329 9.85749849 21.3125 12.875 C20.00716435 15.35513774 19.31947306 16.60454503 17.0625 18.25 C14.46388294 18.57262317 12.10888997 18.71801474 9.5078125 18.71875 C8.76925018 18.72636353 8.03068787 18.73397705 7.26974487 18.74182129 C5.70802182 18.75261979 4.14622656 18.75547637 2.58447266 18.75097656 C0.20221445 18.75000599 -2.17680228 18.79158384 -4.55859375 18.8359375 C-6.0781183 18.84114622 -7.59765402 18.84383267 -9.1171875 18.84375 C-9.82567841 18.86014526 -10.53416931 18.87654053 -11.26412964 18.89343262 C-15.12943723 18.83980019 -16.81590049 18.34544627 -19.89111328 15.93164062 C-21.9375 13.25 -21.9375 13.25 -22.5 9.75 C-21.84999932 5.70555135 -20.89744621 4.04550476 -17.9375 1.25 C-12.34266101 -0.73892807 -5.84678185 0.02356386 0 0 Z " fill="#000000" transform="translate(140.9375,322.75)"/>
<path d="M0 0 C0.94617188 -0.020625 1.89234375 -0.04125 2.8671875 -0.0625 C11.6816965 -0.11201971 11.6816965 -0.11201971 15.625 3.25 C18.12531654 7.00047482 18.16103554 8.80856266 17.625 13.25 C15.87890625 15.9375 15.87890625 15.9375 12.625 18.25 C8.4477711 18.99826286 4.35813253 18.94756799 0.125 18.875 C-1.56689453 18.90400391 -1.56689453 18.90400391 -3.29296875 18.93359375 C-11.48648556 18.8851114 -11.48648556 18.8851114 -15.62109375 15.9296875 C-17.94195429 12.38378476 -18.0441577 10.4136479 -17.375 6.25 C-12.93321349 -0.7955924 -7.56948546 0.04091614 0 0 Z " fill="#000000" transform="translate(332.375,288.75)"/>
<path d="M0 0 C1.70542969 -0.04930664 1.70542969 -0.04930664 3.4453125 -0.09960938 C11.79201317 -0.15349066 11.79201317 -0.15349066 15.87890625 2.74609375 C18.18480572 6.30037728 18.29415242 8.27388495 17.625 12.4375 C15.82937595 15.19079021 14.57245078 16.96377461 11.625 18.4375 C7.86055311 18.73245558 4.08715053 18.7154968 0.3125 18.75 C-1.25661133 18.79350586 -1.25661133 18.79350586 -2.85742188 18.83789062 C-10.59836828 18.90194683 -10.59836828 18.90194683 -14.54296875 16.54296875 C-17.53719694 13.10184083 -17.64615025 10.95667084 -17.375 6.4375 C-14.52511352 -1.45449334 -7.05240442 0.03573854 0 0 Z " fill="#000000" transform="translate(332.375,135.5625)"/>
</svg>
